<?xml version="1.0" encoding="utf-8"?>
<!-- Generator: Adobe Illustrator 15.0.0, SVG Export Plug-In . SVG Version: 6.00 Build 0)  -->
<!DOCTYPE svg PUBLIC "-//W3C//DTD SVG 1.1//EN" "http://www.w3.org/Graphics/SVG/1.1/DTD/svg11.dtd">
<svg version="1.1" id="Calque_1" xmlns="http://www.w3.org/2000/svg" xmlns:xlink="http://www.w3.org/1999/xlink" x="0px" y="0px"
	 width="40px" height="40px" viewBox="0 0 40 40" enable-background="new 0 0 40 40" xml:space="preserve">
<g>
	<rect x="-256.147" y="9.998" fill="none" width="12.98" height="20.004"/>
	<g>
		<polygon fill="rgb(207, 207, 207)" points="-253.169,30.002 -256.147,27.023 -249.126,20 -256.147,12.977 -253.169,9.998 -243.167,20 		"/>
	</g>
</g>
<g>
	<rect x="-206.149" y="9.998" fill="none" width="12.982" height="20.004"/>
	<g>
		<polygon fill="rgb(207, 207, 207)" points="-203.171,30.002 -206.149,27.023 -199.126,20 -206.149,12.977 -203.171,9.998 -193.167,20 		"/>
	</g>
</g>
<g>
	<rect x="-198.315" y="9.998" fill="none" width="12.98" height="20.004"/>
	<g>
		<polygon fill="rgb(207, 207, 207)" points="-195.337,30.002 -198.315,27.023 -191.294,20 -198.315,12.977 -195.337,9.998 -185.335,20 		"/>
	</g>
</g>
<g>
	<rect x="-148.17" y="9.998" fill="none" width="12.981" height="20.004"/>
	<g>
		<polygon fill="rgb(207, 207, 207)" points="-145.191,30.002 -148.17,27.023 -141.147,20 -148.17,12.977 -145.191,9.998 -135.188,20 		"/>
	</g>
</g>
<g>
	<rect x="-140.337" y="9.998" fill="none" width="12.981" height="20.004"/>
	<g>
		<polygon fill="rgb(207, 207, 207)" points="-137.358,30.002 -140.337,27.023 -133.313,20 -140.337,12.977 -137.358,9.998 -127.355,20 		"/>
	</g>
</g>
<g>
	<rect x="-156.003" y="9.998" fill="none" width="12.98" height="20.004"/>
	<g>
		<polygon fill="rgb(207, 207, 207)" points="-153.024,30.002 -156.003,27.023 -148.98,20 -156.003,12.978 -153.024,9.998 -143.022,20 		"/>
	</g>
</g>
<g>
	<rect x="-98.348" y="12.98" fill="none" width="20.004" height="12.98"/>
	<g>
		<polygon fill="rgb(207, 207, 207)" points="-78.344,22.982 -81.322,25.961 -88.346,18.939 -95.368,25.961 -98.348,22.982 -88.346,12.98 		"/>
	</g>
</g>
<g>
	<rect x="-44.175" y="17.396" fill="none" width="20.004" height="12.981"/>
	<g>
		<polygon fill="rgb(207, 207, 207)" points="-24.171,27.399 -27.149,30.378 -34.173,23.355 -41.196,30.378 -44.175,27.399 -34.173,17.396
			"/>
	</g>
</g>
<g>
	<rect x="-44.175" y="9.563" fill="none" width="20.004" height="12.981"/>
	<g>
		<polygon fill="rgb(207, 207, 207)" points="-24.171,19.566 -27.149,22.545 -34.173,15.522 -41.196,22.545 -44.175,19.566 -34.173,9.563 		"/>
	</g>
</g>
<g>
	<rect x="9.998" y="13.146" fill="none" width="20.004" height="12.981"/>
	<g>
		<polygon fill="rgb(207, 207, 207)" points="30.002,23.149 27.023,26.128 20,19.105 12.978,26.128 9.998,23.149 20,13.146 		"/>
	</g>
</g>
<g>
	<rect x="9.998" y="5.313" fill="none" width="20.004" height="12.981"/>
	<g>
		<polygon fill="rgb(207, 207, 207)" points="30.002,15.316 27.023,18.295 20,11.271 12.978,18.295 9.998,15.316 20,5.313 		"/>
	</g>
</g>
<g>
	<rect x="9.999" y="20.98" fill="none" width="20.002" height="12.98"/>
	<g>
		<polygon fill="rgb(207, 207, 207)" points="30.001,30.982 27.022,33.961 20.001,26.938 12.978,33.961 9.999,30.982 20.001,20.98 		"/>
	</g>
</g>
<path fill="none" stroke="rgb(207, 207, 207)" stroke-miterlimit="10" d="M-233.364,32.426c0,2.803-2.271,5.074-5.074,5.074h-23.852
	c-2.802,0-5.074-2.271-5.074-5.074V8.574c0-2.802,2.272-5.074,5.074-5.074h23.852c2.803,0,5.074,2.272,5.074,5.074V32.426z"/>
<path fill="none" stroke="rgb(207, 207, 207)" stroke-miterlimit="10" d="M-179.364,32.426c0,2.803-2.271,5.074-5.074,5.074h-23.852
	c-2.803,0-5.074-2.271-5.074-5.074V8.574c0-2.802,2.271-5.074,5.074-5.074h23.852c2.803,0,5.074,2.272,5.074,5.074V32.426z"/>
<path fill="none" stroke="rgb(207, 207, 207)" stroke-miterlimit="10" d="M-125.364,32.426c0,2.803-2.271,5.074-5.074,5.074h-23.852
	c-2.803,0-5.074-2.271-5.074-5.074V8.574c0-2.802,2.271-5.074,5.074-5.074h23.852c2.803,0,5.074,2.272,5.074,5.074V32.426z"/>
<path fill="none" stroke="rgb(207, 207, 207)" stroke-miterlimit="10" d="M-71.364,32.426c0,2.803-2.271,5.074-5.074,5.074h-23.852
	c-2.803,0-5.074-2.271-5.074-5.074V8.574c0-2.802,2.271-5.074,5.074-5.074h23.852c2.803,0,5.074,2.272,5.074,5.074V32.426z"/>
<path fill="none" stroke="rgb(207, 207, 207)" stroke-miterlimit="10" d="M-17.364,32.426c0,2.803-2.271,5.074-5.074,5.074H-46.29
	c-2.803,0-5.074-2.271-5.074-5.074V8.574c0-2.802,2.271-5.074,5.074-5.074h23.852c2.803,0,5.074,2.272,5.074,5.074V32.426z"/>
<path fill="none" stroke="rgb(207, 207, 207)" stroke-miterlimit="10" d="M36.636,32.426c0,2.803-2.271,5.074-5.074,5.074H7.71
	c-2.803,0-5.074-2.271-5.074-5.074V8.574C2.636,5.772,4.907,3.5,7.71,3.5h23.852c2.803,0,5.074,2.272,5.074,5.074V32.426z"/>
</svg>
