<?xml version="1.0" encoding="utf-8"?>
<!-- Generator: Adobe Illustrator 15.0.0, SVG Export Plug-In  -->
<!DOCTYPE svg PUBLIC "-//W3C//DTD SVG 1.1//EN" "http://www.w3.org/Graphics/SVG/1.1/DTD/svg11.dtd" [
	<!ENTITY ns_flows "http://ns.adobe.com/Flows/1.0/">
]>
<svg version="1.1"
	 xmlns="http://www.w3.org/2000/svg" xmlns:xlink="http://www.w3.org/1999/xlink" xmlns:a="http://ns.adobe.com/AdobeSVGViewerExtensions/3.0/"
	 x="0px" y="0px" width="40px" height="40px" viewBox="-5.79 -6 40 40" style="enable-background:new -5.79 -6 40 40;"
	 xml:space="preserve">
<style type="text/css">
<![CDATA[
	.st0{fill:rgb(207, 207, 207);}
]]>
</style>
<defs>
</defs>
<polygon class="st0" points="2,29 5,29 5,24 0,24 0,27 2,27 "/>
<polygon class="st0" points="5,0 2,0 2,2 0,2 0,5 5,5 "/>
<polygon class="st0" points="28,5 28,2 26,2 26,0 23,0 23,5 "/>
<rect x="25" y="8" class="st0" width="3" height="13"/>
<rect y="8" class="st0" width="3" height="13"/>
<rect x="8" class="st0" width="12" height="3"/>
<rect x="8" y="26" class="st0" width="12" height="3"/>
<polygon class="st0" points="26,27 28,27 28,24 23,24 23,29 26,29 "/>
</svg>
