<?xml version="1.0" encoding="utf-8"?>
<!-- Generator: Adobe Illustrator 15.0.0, SVG Export Plug-In . SVG Version: 6.00 Build 0)  -->
<!DOCTYPE svg PUBLIC "-//W3C//DTD SVG 1.1//EN" "http://www.w3.org/Graphics/SVG/1.1/DTD/svg11.dtd">
<svg version="1.1" id="Calque_1" xmlns="http://www.w3.org/2000/svg" xmlns:xlink="http://www.w3.org/1999/xlink" x="0px" y="0px"
	 width="40px" height="40px" viewBox="0 0 40 40" enable-background="new 0 0 40 40" xml:space="preserve">
<g>
	<rect x="-201.975" y="9.998" fill="none" width="12.98" height="20.004"/>
	<g>
		<polygon fill="rgb(207, 207, 207)" points="-198.996,30.002 -201.975,27.023 -194.953,20 -201.975,12.977 -198.996,9.998 -188.994,20 		"/>
	</g>
</g>
<g>
	<rect x="-151.977" y="9.998" fill="none" width="12.982" height="20.004"/>
	<g>
		<polygon fill="rgb(207, 207, 207)" points="-148.998,30.002 -151.977,27.023 -144.953,20 -151.977,12.977 -148.998,9.998 -138.994,20 		"/>
	</g>
</g>
<g>
	<rect x="-144.143" y="9.998" fill="none" width="12.98" height="20.004"/>
	<g>
		<polygon fill="rgb(207, 207, 207)" points="-141.164,30.002 -144.143,27.023 -137.121,20 -144.143,12.977 -141.164,9.998 -131.162,20 		"/>
	</g>
</g>
<g>
	<rect x="-93.997" y="9.998" fill="none" width="12.981" height="20.004"/>
	<g>
		<polygon fill="rgb(207, 207, 207)" points="-91.019,30.002 -93.997,27.023 -86.975,20 -93.997,12.977 -91.019,9.998 -81.016,20 		"/>
	</g>
</g>
<g>
	<rect x="-86.164" y="9.998" fill="none" width="12.981" height="20.004"/>
	<g>
		<polygon fill="rgb(207, 207, 207)" points="-83.186,30.002 -86.164,27.023 -79.141,20 -86.164,12.977 -83.186,9.998 -73.183,20 		"/>
	</g>
</g>
<g>
	<rect x="-101.83" y="9.998" fill="none" width="12.98" height="20.004"/>
	<g>
		<polygon fill="rgb(207, 207, 207)" points="-98.852,30.002 -101.83,27.023 -94.808,20 -101.83,12.978 -98.852,9.998 -88.85,20 		"/>
	</g>
</g>
<g>
	<rect x="-44.175" y="12.98" fill="none" width="20.004" height="12.98"/>
	<g>
		<polygon fill="rgb(207, 207, 207)" points="-24.171,22.982 -27.149,25.961 -34.173,18.939 -41.195,25.961 -44.175,22.982 -34.173,12.98 		"/>
	</g>
</g>
<g>
	<rect x="9.998" y="17.396" fill="none" width="20.004" height="12.981"/>
	<g>
		<polygon fill="rgb(207, 207, 207)" points="30.002,27.399 27.023,30.378 20,23.355 12.977,30.378 9.998,27.399 20,17.396 		"/>
	</g>
</g>
<g>
	<rect x="9.998" y="9.563" fill="none" width="20.004" height="12.981"/>
	<g>
		<polygon fill="rgb(207, 207, 207)" points="30.002,19.566 27.023,22.545 20,15.522 12.977,22.545 9.998,19.566 20,9.563 		"/>
	</g>
</g>
<g>
	<rect x="64.171" y="13.146" fill="none" width="20.004" height="12.981"/>
	<g>
		<polygon fill="rgb(207, 207, 207)" points="84.175,23.149 81.196,26.128 74.173,19.105 67.15,26.128 64.171,23.149 74.173,13.146 		"/>
	</g>
</g>
<g>
	<rect x="64.171" y="5.313" fill="none" width="20.004" height="12.981"/>
	<g>
		<polygon fill="rgb(207, 207, 207)" points="84.175,15.316 81.196,18.295 74.173,11.271 67.15,18.295 64.171,15.316 74.173,5.313 		"/>
	</g>
</g>
<g>
	<rect x="64.172" y="20.98" fill="none" width="20.002" height="12.98"/>
	<g>
		<polygon fill="rgb(207, 207, 207)" points="84.174,30.982 81.195,33.961 74.174,26.938 67.15,33.961 64.172,30.982 74.174,20.98 		"/>
	</g>
</g>
<path fill="none" stroke="rgb(207, 207, 207)" stroke-miterlimit="10" d="M-179.191,32.426c0,2.803-2.271,5.074-5.074,5.074h-23.852
	c-2.802,0-5.074-2.271-5.074-5.074V8.574c0-2.802,2.272-5.074,5.074-5.074h23.852c2.803,0,5.074,2.272,5.074,5.074V32.426z"/>
<path fill="none" stroke="rgb(207, 207, 207)" stroke-miterlimit="10" d="M-125.191,32.426c0,2.803-2.271,5.074-5.074,5.074h-23.852
	c-2.803,0-5.074-2.271-5.074-5.074V8.574c0-2.802,2.271-5.074,5.074-5.074h23.852c2.803,0,5.074,2.272,5.074,5.074V32.426z"/>
<path fill="none" stroke="rgb(207, 207, 207)" stroke-miterlimit="10" d="M-71.191,32.426c0,2.803-2.271,5.074-5.074,5.074h-23.852
	c-2.803,0-5.074-2.271-5.074-5.074V8.574c0-2.802,2.271-5.074,5.074-5.074h23.852c2.803,0,5.074,2.272,5.074,5.074V32.426z"/>
<path fill="none" stroke="rgb(207, 207, 207)" stroke-miterlimit="10" d="M-17.191,32.426c0,2.803-2.271,5.074-5.074,5.074h-23.852
	c-2.803,0-5.074-2.271-5.074-5.074V8.574c0-2.802,2.271-5.074,5.074-5.074h23.852c2.803,0,5.074,2.272,5.074,5.074V32.426z"/>
<path fill="none" stroke="rgb(207, 207, 207)" stroke-miterlimit="10" d="M36.809,32.426c0,2.803-2.271,5.074-5.074,5.074H7.883
	c-2.803,0-5.074-2.271-5.074-5.074V8.574C2.809,5.772,5.08,3.5,7.883,3.5h23.852c2.803,0,5.074,2.272,5.074,5.074V32.426z"/>
<path fill="none" stroke="rgb(207, 207, 207)" stroke-miterlimit="10" d="M90.809,32.426c0,2.803-2.271,5.074-5.074,5.074H61.883
	c-2.803,0-5.074-2.271-5.074-5.074V8.574c0-2.802,2.271-5.074,5.074-5.074h23.852c2.803,0,5.074,2.272,5.074,5.074V32.426z"/>
</svg>
