<?xml version="1.0" encoding="utf-8"?>
<!-- Generator: Adobe Illustrator 15.0.0, SVG Export Plug-In  -->
<!DOCTYPE svg PUBLIC "-//W3C//DTD SVG 1.1//EN" "http://www.w3.org/Graphics/SVG/1.1/DTD/svg11.dtd" [
	<!ENTITY ns_flows "http://ns.adobe.com/Flows/1.0/">
]>
<svg version="1.1"
	 xmlns="http://www.w3.org/2000/svg" xmlns:xlink="http://www.w3.org/1999/xlink" xmlns:a="http://ns.adobe.com/AdobeSVGViewerExtensions/3.0/"
	 x="0px" y="0px" width="40px" height="40px" viewBox="-10.415 -5.827 40 40" style="enable-background:new -10.415 -5.827 40 40;"
	 xml:space="preserve">
<style type="text/css">
<![CDATA[
	.st0{fill:rgb(205, 205, 205);}
]]>
</style>
<defs>
</defs>
<path class="st0" d="M13.889,14.275l4.072,2.156l1.209-2.418l-3.623-2.497l-2.402-3.699L7.281,6.915L3.213,9.401L0.66,15.202
	l2.424,1.213l2.271-4.088l0.828-0.553l-1.758,8.986L0,26.072l2.273,2.273l5.469-5.469l1.313-4.035l1.963,3.138l1.99,6.14h3.371
	l-1.371-7.038l-2.736-5.505l0.482-2.727L13.889,14.275z M14.184,21.3l1.166,5.971h-1.725l-1.816-5.603l-2.293-3.691H8.443
	L6.998,22.42l-4.725,4.725L1.148,26.02l4.068-4.882l1.111-5.681l5.225,0.58L14.184,21.3z M12.109,11.605l-0.629,3.569L6.492,14.62
	l0.756-3.863H6.18l-1.467,0.977l-1.977,3.559l-0.973-0.488l2.119-4.816l3.576-2.186l5.18,0.797l2.289,3.521l3.152,2.174l-0.49,0.98
	l-3.146-1.666l-1.596-2.003H12.109z"/>
<path class="st0" d="M8.16,3.383c0.051,0.51,0.24,0.993,0.551,1.4L9.27,5.515c0.328,0.431,0.826,0.715,1.363,0.778l1.877,0.222
	l1.27-2.572c0.281-0.57,0.346-1.224,0.178-1.838c-0.105-0.396-0.309-0.767-0.584-1.071L13.23,0.877
	c-0.449-0.496-1.064-0.799-1.732-0.85l-0.244-0.02c-0.652-0.051-1.299,0.131-1.828,0.514L9.264,0.639
	c-0.564,0.408-0.951,1.01-1.088,1.695C8.123,2.6,8.109,2.872,8.137,3.142L8.16,3.383z M9.01,2.5C9.104,2.026,9.371,1.61,9.762,1.327
	l0.162-0.117c0.365-0.264,0.814-0.389,1.264-0.354l0.244,0.018c0.451,0.035,0.867,0.239,1.17,0.574l0.141,0.156
	c0.188,0.205,0.322,0.455,0.396,0.723c0.111,0.415,0.068,0.855-0.121,1.24l-1.004,2.034l-1.279-0.151
	C10.422,5.412,10.135,5.248,9.945,5L9.387,4.268C9.172,3.987,9.041,3.652,9.006,3.299l-0.023-0.24C8.963,2.872,8.973,2.684,9.01,2.5
	z"/>
</svg>
