<svg
  xmlns="http://www.w3.org/2000/svg"
  xmlns:xlink="http://www.w3.org/1999/xlink"
  version="1.1"
  x="0px"
  y="0px"
  viewBox="0 0 100 125"
  style="enable-background:new 0 0 100 100;"
  fill="rgb(207, 207, 207)"
  xml:space="preserve">
  <g>
    <path d="M1.4,23.9L8,42.1c0,0,0,0,0,0c0,0.1,0.1,0.2,0.1,0.2c0,0,0,0,0,0c0,0,0,0,0.1,0.1c0,0,0.1,0.1,0.1,0.1c0,0,0,0,0.1,0.1   c0.1,0,0.1,0.1,0.2,0.1c0,0,0,0,0.1,0c0.1,0,0.2,0,0.3,0l5,0.1l4.5,34.4c0,0,0,0,0,0c0.3,5.9,16.4,9.1,31.6,9.1s31.3-3.2,31.6-9.1   c0,0,0,0,0,0l4.5-34.4l5-0.1c0.1,0,0.2,0,0.3,0c0,0,0,0,0.1,0c0.1,0,0.1-0.1,0.2-0.1c0,0,0.1,0,0.1-0.1c0.1,0,0.1-0.1,0.1-0.1   c0,0,0,0,0.1-0.1c0,0,0,0,0,0c0-0.1,0.1-0.1,0.1-0.2c0,0,0,0,0,0l6.5-18.2c0.1-0.3,0.1-0.6-0.1-0.8l-5.2-9c0,0,0,0,0,0   c0,0,0,0,0-0.1c-0.1-0.1-0.1-0.2-0.2-0.2c0,0,0,0,0,0c0,0,0,0,0,0c-0.1-0.1-0.2-0.1-0.3-0.1c0,0,0,0,0,0c-0.1,0-0.1,0-0.2,0   l-13.2,0.6c-0.2,0-0.4,0.1-0.6,0.3L66.3,25.4c0,0,0,0,0,0c-0.1,0.1-0.1,0.1-0.2,0.2c0,0,0,0.1-0.1,0.1c0,0,0,0,0,0.1   c0,0.1-0.1,0.2-0.1,0.3c0,0,0,0,0,0.1c0,0.1,0,0.2,0,0.3c0,0,0,0,0,0.1c0,0,0,0,0,0l2.3,6L50,48.3L31.7,32.5l2.3-6c0,0,0,0,0,0   c0,0,0,0,0-0.1c0-0.1,0-0.2,0-0.3c0,0,0,0,0-0.1c0-0.1,0-0.2-0.1-0.3c0,0,0,0,0-0.1c0,0,0-0.1-0.1-0.1c0-0.1-0.1-0.1-0.2-0.2   c0,0,0,0,0,0L21.4,14.5c-0.2-0.2-0.4-0.2-0.6-0.3L7.6,13.6c-0.1,0-0.1,0-0.2,0c0,0,0,0,0,0c-0.1,0-0.2,0.1-0.3,0.1c0,0,0,0,0,0   c0,0,0,0,0,0c-0.1,0.1-0.2,0.1-0.2,0.2c0,0,0,0,0,0.1c0,0,0,0,0,0l-5.2,9C1.4,23.3,1.3,23.6,1.4,23.9z M71.4,82   c-5.7,1.5-13.3,2.4-21.4,2.4S34.3,83.6,28.6,82c-6.1-1.6-8.2-3.6-8.2-4.9s2.2-3.2,8.2-4.9c5.7-1.5,13.3-2.4,21.4-2.4   s15.7,0.8,21.4,2.4c6.1,1.6,8.2,3.6,8.2,4.9S77.4,80.4,71.4,82z M73.6,30.6c0.1-0.2,0.3-0.4,0.5-0.5l0.1-0.1   c0.7-0.5,1.6-0.8,2.7-0.8c0,0,0.1,0,0.1,0c3.2,0,6.7,2.3,7.7,5c0.4,1.2,0.4,2.2-0.2,3.1c-0.6,0.9-1.8,1.4-3.3,1.4c0,0-0.1,0-0.1,0   c-3.2,0-6.7-2.3-7.7-5C73,32.5,73,31.4,73.6,30.6z M27,43c0.4,0,0.8-0.3,0.9-0.6l3-7.9l18.4,16c0.1,0,0.1,0.1,0.2,0.1   c0,0,0.1,0,0.1,0.1c0.1,0,0.2,0.1,0.4,0.1c0,0,0,0,0,0s0,0,0,0c0.1,0,0.3,0,0.4-0.1c0,0,0.1,0,0.1-0.1c0.1,0,0.1-0.1,0.2-0.1   l18.4-16l3,7.9c0.1,0.4,0.5,0.6,0.9,0.6c0,0,0,0,0,0l11.1-0.1L80,74.1c-4.5-4-17.5-6.2-30-6.2c-12.4,0-25.5,2.1-30,6.2l-4.1-31.2   L27,43C27,43,27,43,27,43z M15.3,34.2c1-2.7,4.6-5,7.7-5c0,0,0.1,0,0.1,0c1.1,0,2,0.3,2.7,0.8l0.1,0.1c0.2,0.2,0.4,0.3,0.5,0.5   c0.6,0.8,0.6,1.9,0.2,3.1c-1,2.7-4.6,5-7.7,5c0,0-0.1,0-0.1,0c-1.5,0-2.7-0.5-3.3-1.4C15,36.5,14.9,35.4,15.3,34.2z"/>
  </g>
</svg>
