<?xml version="1.0" encoding="utf-8"?>
<!-- Generator: Adobe Illustrator 15.0.0, SVG Export Plug-In . SVG Version: 6.00 Build 0)  -->
<!DOCTYPE svg PUBLIC "-//W3C//DTD SVG 1.1//EN" "http://www.w3.org/Graphics/SVG/1.1/DTD/svg11.dtd">
<svg version="1.1" id="Calque_1" xmlns="http://www.w3.org/2000/svg" xmlns:xlink="http://www.w3.org/1999/xlink" x="0px" y="0px"
	 width="40px" height="40px" viewBox="0 0 40 40" enable-background="new 0 0 40 40" xml:space="preserve">
<g>
	<rect x="-201.975" y="8.803" fill="none" width="12.98" height="20.004"/>
	<g>
		<polygon fill="#7cff55" points="-198.996,28.807 -201.975,25.828 -194.953,18.805 -201.975,11.781 -198.996,8.803
			-188.994,18.805 		"/>
	</g>
</g>
<g>
	<rect x="-152.977" y="9.365" fill="none" width="12.982" height="20.004"/>
	<g>
		<polygon fill="#7cff55" points="-149.998,29.369 -152.977,26.391 -145.953,19.367 -152.977,12.344 -149.998,9.365
			-139.994,19.367 		"/>
	</g>
</g>
<g>
	<rect x="-143.143" y="9.365" fill="none" width="12.98" height="20.004"/>
	<g>
		<polygon fill="#7cff55" points="-140.164,29.369 -143.143,26.391 -136.121,19.367 -143.143,12.344 -140.164,9.365
			-130.162,19.367 		"/>
	</g>
</g>
<g>
	<rect x="-93.997" y="9.637" fill="none" width="12.981" height="20.004"/>
	<g>
		<polygon fill="#7cff55" points="-91.019,29.641 -93.997,26.662 -86.975,19.639 -93.997,12.615 -91.019,9.637 -81.016,19.639 		"/>
	</g>
</g>
<g>
	<rect x="-84.164" y="9.637" fill="none" width="12.981" height="20.004"/>
	<g>
		<polygon fill="#7cff55" points="-81.186,29.641 -84.164,26.662 -77.141,19.639 -84.164,12.615 -81.186,9.637 -71.183,19.639 		"/>
	</g>
</g>
<g>
	<rect x="-103.83" y="9.303" fill="none" width="12.98" height="20.003"/>
	<g>
		<polygon fill="#7cff55" points="-100.852,29.307 -103.83,26.328 -96.808,19.305 -103.83,12.282 -100.852,9.303 -90.85,19.305
			"/>
	</g>
</g>
<g>
	<rect x="-44.132" y="12.98" fill="none" width="20.004" height="12.98"/>
	<g>
		<polygon fill="#7cff55" points="-24.128,22.982 -27.106,25.961 -34.13,18.939 -41.152,25.961 -44.132,22.982 -34.13,12.98 		"/>
	</g>
</g>
<g>
	<rect x="10.158" y="17.396" fill="none" width="20.003" height="12.981"/>
	<g>
		<polygon fill="#7cff55" points="30.161,27.399 27.183,30.378 20.16,23.355 13.137,30.378 10.158,27.399 20.16,17.396 		"/>
	</g>
</g>
<g>
	<rect x="10.158" y="7.563" fill="none" width="20.003" height="12.981"/>
	<g>
		<polygon fill="#7cff55" points="30.161,17.566 27.183,20.545 20.16,13.522 13.137,20.545 10.158,17.566 20.16,7.563 		"/>
	</g>
</g>
</svg>
