<?xml version="1.0" encoding="utf-8"?>
<!-- Generator: Adobe Illustrator 15.0.0, SVG Export Plug-In . SVG Version: 6.00 Build 0)  -->
<!DOCTYPE svg PUBLIC "-//W3C//DTD SVG 1.1//EN" "http://www.w3.org/Graphics/SVG/1.1/DTD/svg11.dtd">
<svg version="1.1" id="Calque_1" xmlns="http://www.w3.org/2000/svg" xmlns:xlink="http://www.w3.org/1999/xlink" x="0px" y="0px"
	 width="40px" height="40px" viewBox="0 0 40 40" enable-background="new 0 0 40 40" xml:space="preserve">
<g>
	<rect x="-147.802" y="8.803" fill="none" width="12.98" height="20.004"/>
	<g>
		<polygon fill="#7cff55" points="-144.823,28.807 -147.802,25.828 -140.78,18.805 -147.802,11.781 -144.823,8.803 -134.821,18.805 
					"/>
	</g>
</g>
<g>
	<rect x="-98.804" y="9.365" fill="none" width="12.982" height="20.004"/>
	<g>
		<polygon fill="#7cff55" points="-95.825,29.369 -98.804,26.391 -91.78,19.367 -98.804,12.344 -95.825,9.365 -85.821,19.367 		"/>
	</g>
</g>
<g>
	<rect x="-88.97" y="9.365" fill="none" width="12.98" height="20.004"/>
	<g>
		<polygon fill="#7cff55" points="-85.991,29.369 -88.97,26.391 -81.948,19.367 -88.97,12.344 -85.991,9.365 -75.989,19.367 		"/>
	</g>
</g>
<g>
	<rect x="-39.824" y="9.637" fill="none" width="12.981" height="20.004"/>
	<g>
		<polygon fill="#7cff55" points="-36.846,29.641 -39.824,26.662 -32.802,19.639 -39.824,12.615 -36.846,9.637 -26.843,19.639 		"/>
	</g>
</g>
<g>
	<rect x="-29.991" y="9.637" fill="none" width="12.981" height="20.004"/>
	<g>
		<polygon fill="#7cff55" points="-27.013,29.641 -29.991,26.662 -22.968,19.639 -29.991,12.615 -27.013,9.637 -17.01,19.639 		"/>
	</g>
</g>
<g>
	<rect x="-49.657" y="9.303" fill="none" width="12.98" height="20.003"/>
	<g>
		<polygon fill="#7cff55" points="-46.679,29.307 -49.657,26.328 -42.635,19.305 -49.657,12.282 -46.679,9.303 -36.677,19.305 		"/>
	</g>
</g>
<g>
	<rect x="10.041" y="12.98" fill="none" width="20.004" height="12.98"/>
	<g>
		<polygon fill="#7cff55" points="30.045,22.982 27.066,25.961 20.043,18.939 13.021,25.961 10.041,22.982 20.043,12.98 		"/>
	</g>
</g>
</svg>
