<?xml version="1.0" encoding="utf-8"?>
<!-- Generator: Adobe Illustrator 15.0.0, SVG Export Plug-In . SVG Version: 6.00 Build 0)  -->
<!DOCTYPE svg PUBLIC "-//W3C//DTD SVG 1.1//EN" "http://www.w3.org/Graphics/SVG/1.1/DTD/svg11.dtd">
<svg version="1.1" id="Calque_1" xmlns="http://www.w3.org/2000/svg" xmlns:xlink="http://www.w3.org/1999/xlink" x="0px" y="0px"
	 width="40px" height="40px" viewBox="0 0 40 40" enable-background="new 0 0 40 40" xml:space="preserve">
<g>
	<rect x="-256.147" y="8.803" fill="none" width="12.98" height="20.004"/>
	<g>
		<polygon fill="#7cff55" points="-253.169,28.807 -256.147,25.828 -249.126,18.805 -256.147,11.781 -253.169,8.803
			-243.167,18.805 		"/>
	</g>
</g>
<g>
	<rect x="-207.149" y="9.365" fill="none" width="12.982" height="20.004"/>
	<g>
		<polygon fill="#7cff55" points="-204.171,29.369 -207.149,26.391 -200.126,19.367 -207.149,12.344 -204.171,9.365
			-194.167,19.367 		"/>
	</g>
</g>
<g>
	<rect x="-197.315" y="9.365" fill="none" width="12.98" height="20.004"/>
	<g>
		<polygon fill="#7cff55" points="-194.337,29.369 -197.315,26.391 -190.294,19.367 -197.315,12.344 -194.337,9.365
			-184.335,19.367 		"/>
	</g>
</g>
<g>
	<rect x="-148.17" y="9.637" fill="none" width="12.981" height="20.004"/>
	<g>
		<polygon fill="#7cff55" points="-145.191,29.641 -148.17,26.662 -141.147,19.639 -148.17,12.615 -145.191,9.637 -135.188,19.639
					"/>
	</g>
</g>
<g>
	<rect x="-138.337" y="9.637" fill="none" width="12.981" height="20.004"/>
	<g>
		<polygon fill="#7cff55" points="-135.358,29.641 -138.337,26.662 -131.313,19.639 -138.337,12.615 -135.358,9.637
			-125.355,19.639 		"/>
	</g>
</g>
<g>
	<rect x="-158.003" y="9.303" fill="none" width="12.98" height="20.003"/>
	<g>
		<polygon fill="#7cff55" points="-155.024,29.307 -158.003,26.328 -150.98,19.305 -158.003,12.282 -155.024,9.303 -145.022,19.305
					"/>
	</g>
</g>
<g>
	<rect x="-98.305" y="12.98" fill="none" width="20.004" height="12.98"/>
	<g>
		<polygon fill="#7cff55" points="-78.301,22.982 -81.279,25.961 -88.303,18.939 -95.325,25.961 -98.305,22.982 -88.303,12.98 		"/>
	</g>
</g>
<g>
	<rect x="-44.015" y="17.396" fill="none" width="20.003" height="12.981"/>
	<g>
		<polygon fill="#7cff55" points="-24.012,27.399 -26.99,30.378 -34.013,23.355 -41.036,30.378 -44.015,27.399 -34.013,17.396 		"/>
	</g>
</g>
<g>
	<rect x="-44.015" y="7.563" fill="none" width="20.003" height="12.981"/>
	<g>
		<polygon fill="#7cff55" points="-24.012,17.566 -26.99,20.545 -34.013,13.522 -41.036,20.545 -44.015,17.566 -34.013,7.563 		"/>
	</g>
</g>
<g>
	<rect x="9.912" y="13.146" fill="none" width="20.004" height="12.981"/>
	<g>
		<polygon fill="#7cff55" points="29.916,23.149 26.938,26.128 19.914,19.105 12.892,26.128 9.912,23.149 19.914,13.146 		"/>
	</g>
</g>
<g>
	<rect x="9.912" y="3.313" fill="none" width="20.004" height="12.981"/>
	<g>
		<polygon fill="#7cff55" points="29.916,13.316 26.938,16.295 19.914,9.272 12.892,16.295 9.912,13.316 19.914,3.313 		"/>
	</g>
</g>
<g>
	<rect x="9.579" y="22.98" fill="none" width="20.003" height="12.98"/>
	<g>
		<polygon fill="#7cff55" points="29.582,32.982 26.604,35.961 19.581,28.938 12.558,35.961 9.579,32.982 19.581,22.98 		"/>
	</g>
</g>
</svg>
