<?xml version="1.0" encoding="utf-8"?>
<!-- Generator: Adobe Illustrator 15.0.0, SVG Export Plug-In . SVG Version: 6.00 Build 0)  -->
<!DOCTYPE svg PUBLIC "-//W3C//DTD SVG 1.1//EN" "http://www.w3.org/Graphics/SVG/1.1/DTD/svg11.dtd">
<svg version="1.1" id="Calque_1" xmlns="http://www.w3.org/2000/svg" xmlns:xlink="http://www.w3.org/1999/xlink" x="0px" y="0px"
	 width="40px" height="40px" viewBox="0 0 40 40" enable-background="new 0 0 40 40" xml:space="preserve">
<g>
	<rect x="-93.629" y="8.803" fill="none" width="12.98" height="20.004"/>
	<g>
		<polygon fill="#7cff55" points="-90.65,28.807 -93.629,25.828 -86.607,18.805 -93.629,11.781 -90.65,8.803 -80.648,18.805 		"/>
	</g>
</g>
<g>
	<rect x="-44.631" y="9.365" fill="none" width="12.982" height="20.004"/>
	<g>
		<polygon fill="#7cff55" points="-41.652,29.369 -44.631,26.391 -37.607,19.367 -44.631,12.344 -41.652,9.365 -31.648,19.367 		"/>
	</g>
</g>
<g>
	<rect x="-34.797" y="9.365" fill="none" width="12.98" height="20.004"/>
	<g>
		<polygon fill="#7cff55" points="-31.818,29.369 -34.797,26.391 -27.775,19.367 -34.797,12.344 -31.818,9.365 -21.816,19.367 		"/>
	</g>
</g>
<g>
	<rect x="14.349" y="9.637" fill="none" width="12.981" height="20.004"/>
	<g>
		<polygon fill="#7cff55" points="17.327,29.641 14.349,26.662 21.371,19.639 14.349,12.615 17.327,9.637 27.33,19.639 		"/>
	</g>
</g>
<g>
	<rect x="24.182" y="9.637" fill="none" width="12.981" height="20.004"/>
	<g>
		<polygon fill="#7cff55" points="27.16,29.641 24.182,26.662 31.205,19.639 24.182,12.615 27.16,9.637 37.163,19.639 		"/>
	</g>
</g>
<g>
	<rect x="4.516" y="9.303" fill="none" width="12.98" height="20.003"/>
	<g>
		<polygon fill="#7cff55" points="7.494,29.307 4.516,26.328 11.538,19.305 4.516,12.282 7.494,9.303 17.496,19.305 		"/>
	</g>
</g>
</svg>
